<svg xmlns="http://www.w3.org/2000/svg" xmlns:xlink="http://www.w3.org/1999/xlink" viewBox="0 0 580.7 398.82"><defs><style>.cls-1{fill:none;}.cls-2{clip-path:url(#clip-path);}.cls-3{fill:url(#Degradado_sin_nombre_8);}.cls-4{clip-path:url(#clip-path-3);}.cls-5{stroke:#000;stroke-miterlimit:10;stroke-width:1.01px;fill:url(#Degradado_sin_nombre_9);}.cls-6{fill:#2b2b2b;}</style><clipPath id="clip-path"><path class="cls-1" d="M265.1,159.2c-2.5,6.1-4.8,11.6-7.1,17.1-13,31.6-25.5,63.4-39.1,94.7-11.6,26.8-33.5,40-62,42.8A85,85,0,0,1,69.1,259c-8.3-21.9-15.6-44.1-23-66.3-11.2-33.7-22-67.5-33-101.2C2.6,59.3,27.9,33.6,57.2,36.1c17.6,1.5,29.7,11.7,35.6,28.4,7.7,22,15,44.1,22.5,66.1,6.5,19.2,12.9,38.5,19.5,57.7a46.2,46.2,0,0,0,5.5,11.4c6.5,9.5,16.5,9.5,23,0a75.16,75.16,0,0,0,6.1-12c17.1-41.3,34.1-82.7,51.3-124,7.5-17.9,21.4-27.3,40.7-27.9,19.5-.6,34.5,8,42.6,26,16,35.2,31.4,70.6,47.1,105.9,3.7,8.3,7.5,16.6,11.3,24.8a35.38,35.38,0,0,0,4.1,6.7c7.1,9.3,18.8,9.2,25.6-.3a40.4,40.4,0,0,0,4.9-10c14.6-40.7,29.2-81.4,43.4-122.2,5-14.3,13.4-24.9,28-29.2,26.1-7.8,55.2,11.3,53.6,41.3-.4,7.8-3,15.6-5.4,23.2Q494,173.4,471,244.7c-5.5,17.1-13.2,33.1-26.5,45.8-29.7,28.4-77.7,31.9-110.3,8.1-12.8-9.4-20.4-22.4-26.3-36.6q-20.4-49.35-41-98.8C266.5,162.1,265.9,161,265.1,159.2Z"/></clipPath><linearGradient id="Degradado_sin_nombre_8" x1="6.63" y1="186.82" x2="520.12" y2="185.26" gradientTransform="matrix(1, 0, 0, -1, 0, 357.53)" gradientUnits="userSpaceOnUse"><stop offset="0.13" stop-color="#ec008c"/><stop offset="0.49" stop-color="#fb481e"/><stop offset="0.76" stop-color="#fe5708"/><stop offset="1" stop-color="#ff5c00"/></linearGradient><clipPath id="clip-path-3"><path class="cls-1" d="M540.5,36.9,459.6,13.4A12.41,12.41,0,0,0,444.9,20L375.6,163.9a12.51,12.51,0,0,1-20.5,3l-20.5-22.3-1.2-1.5A37.66,37.66,0,0,0,282,132.7h0a37.5,37.5,0,0,0-12.3,50.9c.3.6.6,1.1.9,1.8L317.5,300a12.38,12.38,0,0,0,8.3,7.3c21.7,5.9,101.5,27,101.8,27.1,12.9,3.5,24,2.9,26.6-4.2L548.9,53A12.69,12.69,0,0,0,540.5,36.9Z"/></clipPath><linearGradient id="Degradado_sin_nombre_9" x1="169.39" y1="94.23" x2="476.34" y2="198.93" gradientTransform="matrix(1, 0, 0, -1, 0, 357.53)" gradientUnits="userSpaceOnUse"><stop offset="0" stop-color="#ff5c00"/><stop offset="0.28" stop-color="#d03c54"/><stop offset="0.82" stop-color="#7700f4"/></linearGradient></defs><title>webmain</title><g id="Capa_2" data-name="Capa 2"><g id="Capa_1-2" data-name="Capa 1"><g class="cls-2"><rect class="cls-3" y="15.9" width="528" height="311.1"/></g><g class="cls-2"><g class="cls-4"><rect class="cls-5" x="257.5" y="0.5" width="322.7" height="355.4"/></g></g><path class="cls-6" d="M101.85,398.82a8.59,8.59,0,0,1-3.64-.8,7.91,7.91,0,0,1-3-2.4,10.16,10.16,0,0,1-1.8-4l-7.68-33h7.44l7.2,31.52a2.47,2.47,0,0,0,.48,1.08,1.21,1.21,0,0,0,1,.36,1,1,0,0,0,.84-.36,2.54,2.54,0,0,0,.44-.92l6.4-25.52a10.57,10.57,0,0,1,3-5.36,7.48,7.48,0,0,1,5.12-1.76,7.55,7.55,0,0,1,5.12,1.72,9.88,9.88,0,0,1,2.88,5.32l6.32,25.6a2.67,2.67,0,0,0,.56,1,1.22,1.22,0,0,0,.88.32,1.2,1.2,0,0,0,.88-.32,2.17,2.17,0,0,0,.48-1.12l7-31.52h7.36l-7.44,33a10.57,10.57,0,0,1-1.76,4A7.67,7.67,0,0,1,137,398a8.48,8.48,0,0,1-3.68.8,7.24,7.24,0,0,1-5-1.8,10.34,10.34,0,0,1-2.88-5.32L119,365.78a2,2,0,0,0-.52-.92,1.25,1.25,0,0,0-.92-.36,1.13,1.13,0,0,0-.88.36,1.72,1.72,0,0,0-.4.92l-6.48,25.92a10.34,10.34,0,0,1-2.88,5.32A7.24,7.24,0,0,1,101.85,398.82Z"/><path class="cls-6" d="M174.49,398.66A21.13,21.13,0,0,1,163.85,396a19.76,19.76,0,0,1-7.44-7.36,20.89,20.89,0,0,1-2.72-10.68,21.66,21.66,0,0,1,2.48-10.28,19,19,0,0,1,7-7.44,21.14,21.14,0,0,1,20.6-.16,17.92,17.92,0,0,1,6.64,7,20.75,20.75,0,0,1,2.36,9.88v3.2H159.85l1.44-3.2a14.74,14.74,0,0,0,1.36,7.44,12.63,12.63,0,0,0,11.76,7.2,13.94,13.94,0,0,0,6.68-1.6,11.59,11.59,0,0,0,4.76-4.8l6.08,3.12a18.1,18.1,0,0,1-7.12,7.68A20.22,20.22,0,0,1,174.49,398.66Zm-12.8-23.6h23.12a11.34,11.34,0,0,0-1.64-5.52,9.85,9.85,0,0,0-4-3.68,12.51,12.51,0,0,0-5.72-1.28,12.09,12.09,0,0,0-5.8,1.36,10.48,10.48,0,0,0-4,3.76A14.49,14.49,0,0,0,161.69,375.06Z"/><path class="cls-6" d="M223.05,398.74a21.13,21.13,0,0,1-10.64-2.68,20.14,20.14,0,0,1-10.24-17.8V340.58h7.92v31L206,373.7a14.55,14.55,0,0,1,2.36-8,17.73,17.73,0,0,1,15-8.08A20.64,20.64,0,0,1,234,360.3a19.49,19.49,0,0,1,7.24,7.32,21.13,21.13,0,0,1,2.64,10.64,19.88,19.88,0,0,1-2.72,10.24,20.65,20.65,0,0,1-7.44,7.44A20.42,20.42,0,0,1,223.05,398.74Zm0-7.44a12.31,12.31,0,0,0,6.6-1.8,13.39,13.39,0,0,0,4.6-17.84,12.74,12.74,0,0,0-4.6-4.76,13.26,13.26,0,0,0-13.2,0,13.08,13.08,0,0,0-4.64,4.76,13.29,13.29,0,0,0,0,13.08,13.47,13.47,0,0,0,4.64,4.76A12.34,12.34,0,0,0,223.05,391.3Z"/><path class="cls-6" d="M301.45,357.46a17.81,17.81,0,0,1,10,2.64,17,17,0,0,1,6.16,7.12,23,23,0,0,1,2.12,9.92v20.64h-7.92V378.42a18.56,18.56,0,0,0-1.16-6.64,10.72,10.72,0,0,0-3.6-4.88,9.87,9.87,0,0,0-6.12-1.84,9.58,9.58,0,0,0-5.92,1.8,10.92,10.92,0,0,0-3.6,4.8,17.62,17.62,0,0,0-1.2,6.6v19.52h-7.92V378.26a18.23,18.23,0,0,0-1.16-6.6,10.49,10.49,0,0,0-3.6-4.8,10,10,0,0,0-6.12-1.8,9.51,9.51,0,0,0-6,1.84,10.78,10.78,0,0,0-3.48,4.88,19,19,0,0,0-1.12,6.64v19.36h-7.92V377.22a23.87,23.87,0,0,1,2-10,16.48,16.48,0,0,1,6.08-7.12,17.68,17.68,0,0,1,9.88-2.64,18.19,18.19,0,0,1,8.6,1.92,14.27,14.27,0,0,1,5.68,5.28,15.18,15.18,0,0,1,2.12,7.76h-1.76a15.84,15.84,0,0,1,2.2-7.76,14.45,14.45,0,0,1,5.6-5.28A17,17,0,0,1,301.45,357.46Z"/><path class="cls-6" d="M348.25,398.74a18.53,18.53,0,0,1-10.12-2.8,20.06,20.06,0,0,1-7-7.48,21.18,21.18,0,0,1-2.56-10.36,19.88,19.88,0,0,1,2.76-10.28,20.6,20.6,0,0,1,18.12-10.2,21.13,21.13,0,0,1,10.64,2.68,20,20,0,0,1,10.24,17.8v19.68h-7.52V383.14l2.72-2.08a18.24,18.24,0,0,1-2.2,9,16.73,16.73,0,0,1-6.08,6.36A17,17,0,0,1,348.25,398.74Zm1.2-7.52a12.78,12.78,0,0,0,6.64-1.76,12.62,12.62,0,0,0,4.64-4.76,13.2,13.2,0,0,0-4.64-17.84,12.53,12.53,0,0,0-6.64-1.8,12.34,12.34,0,0,0-6.6,1.8,13.47,13.47,0,0,0-4.64,4.76,13.29,13.29,0,0,0,0,13.08,13,13,0,0,0,4.64,4.76A12.58,12.58,0,0,0,349.45,391.22Z"/><path class="cls-6" d="M387.21,350.82a5.24,5.24,0,0,1-4.48-2.56,5.2,5.2,0,0,1,0-5.28,5.52,5.52,0,0,1,1.92-1.92,4.88,4.88,0,0,1,2.56-.72,4.82,4.82,0,0,1,2.6.72,5.41,5.41,0,0,1,1.84,7.2,5,5,0,0,1-1.84,1.88A5.07,5.07,0,0,1,387.21,350.82Zm-3.92,7.76h7.92v39.2h-7.92Z"/><path class="cls-6" d="M423.53,365.22a10.37,10.37,0,0,0-6.4,1.92,11.79,11.79,0,0,0-3.84,5,17.23,17.23,0,0,0-1.28,6.72v19h-7.92V378a23.41,23.41,0,0,1,2.24-10.36,17.52,17.52,0,0,1,6.56-7.32,19.63,19.63,0,0,1,10.64-2.72,20.16,20.16,0,0,1,10.84,2.72,17.71,17.71,0,0,1,6.64,7.32,22.83,22.83,0,0,1,2.28,10.28v19.84h-7.92V378.9a17,17,0,0,0-1.32-6.76,12,12,0,0,0-3.92-5A10.8,10.8,0,0,0,423.53,365.22Z"/></g></g></svg>