<svg xmlns="http://www.w3.org/2000/svg" xmlns:xlink="http://www.w3.org/1999/xlink" viewBox="0 0 480 261.54"><defs><style>.cls-1{fill:url(#Degradado_sin_nombre_19);}.cls-2{fill:url(#Degradado_sin_nombre_20);}</style><linearGradient id="Degradado_sin_nombre_19" y1="199.61" x2="319.55" y2="199.61" gradientTransform="matrix(1, 0, 0, -1, 0, 330.34)" gradientUnits="userSpaceOnUse"><stop offset="0.34" stop-color="#ec008c"/><stop offset="0.41" stop-color="#ef0e77"/><stop offset="0.61" stop-color="#f62f44"/><stop offset="0.78" stop-color="#fb481f"/><stop offset="0.91" stop-color="#fe5708"/><stop offset="1" stop-color="#ff5c00"/></linearGradient><linearGradient id="Degradado_sin_nombre_20" x1="151.79" y1="120.58" x2="381.55" y2="193.89" gradientTransform="matrix(1, 0, 0, -1, 0, 330.34)" gradientUnits="userSpaceOnUse"><stop offset="0.08" stop-color="#ec008c"/><stop offset="0.29" stop-color="#d00ea6"/><stop offset="0.59" stop-color="#ac1fc7"/><stop offset="0.84" stop-color="#9629db"/><stop offset="1" stop-color="#8e2de2"/></linearGradient></defs><title>isotipo-webmain</title><g id="Capa_2" data-name="Capa 2"><g id="Capa_1-2" data-name="Capa 1"><path class="cls-1" d="M262.39,88c7.79-2.82,15.77-2.63,23.93,0,9.95,4.41,17.09,11.36,22.63,19.71l10.6,16.15c-14.73-33.14-29.19-66.37-44.21-99.41-7.6-16.9-21.68-25-40-24.41-18.11.56-31.16,9.39-38.2,26.19C181,65,165,103.89,149,142.66a70.88,70.88,0,0,1-5.72,11.26c-6.11,8.92-15.49,8.92-21.59,0a43.22,43.22,0,0,1-5.17-10.7c-6.19-18-12.2-36.14-18.3-54.16-7-20.65-13.89-41.4-21.12-62C71.55,11.34,60.19,1.76,43.67.35,16.17-2-7.58,22.13,2.27,52.36c10.33,31.63,20.47,63.36,31,95,7,20.84,13.8,41.68,21.59,62.24A79.78,79.78,0,0,0,137.26,261c26.75-2.63,47.31-15,58.2-40.18,12.76-29.38,24.5-59.23,36.7-88.89,2.16-5.16,4.32-10.33,6.67-16.05,3.47-7.89,6.85-14.18,9.85-17.84A34.41,34.41,0,0,1,262.39,88Z"/><path class="cls-2" d="M377.85,257c-10,3.57-20.65,4.79-31.82,4.51-9.11-.75-17.46-2.25-24.69-5.16a77.32,77.32,0,0,1-19.25-10.8c-4.31-3.1-8.54-8.17-12.76-13.61-4.88-6.76-8.92-16-12.77-25.44L265.11,179,247.93,137.5l-9.1-21.59c3.47-7.89,6.85-14.18,9.85-17.84a34.41,34.41,0,0,1,13.71-10c7.79-2.82,15.77-2.63,23.93,0C300.12,94.5,305.47,103,309,107.74c3.38,5.07,8.82,13.33,10.6,16.15l8.55,18.86a87.76,87.76,0,0,0,3.94,8,21.5,21.5,0,0,0,7.7,7.7,13.58,13.58,0,0,0,13.61-.66c3.85-2.81,5.54-5.16,8-10.51l9.76-27.13L387.8,73.2l12.29-34.74c2.07-6.19,4.14-11.82,6.29-16.71,4-7.88,9.58-14.08,17.28-17.74A39.29,39.29,0,0,1,444.31.16a41.38,41.38,0,0,1,13.33,3.57,36.79,36.79,0,0,1,10.6,7.14,34.67,34.67,0,0,1,8.55,11.92A36.31,36.31,0,0,1,480,39.4a75,75,0,0,1-4.41,20.84L464.11,96l-9,28.44c-2.63,8.17-5.91,18.4-9.38,29.38l-7.51,23.28-5.35,16.62a130.85,130.85,0,0,1-7,18.58,78.56,78.56,0,0,1-6.2,11.55A77,77,0,0,1,411.27,235a79.81,79.81,0,0,1-19.44,15.58A92.78,92.78,0,0,1,377.85,257Z"/></g></g></svg>